<?xml version="1.0" encoding="UTF-8"?>
<svg version="1.1" xmlns="http://www.w3.org/2000/svg" width="295" height="291">
<path d="M0 0 C97.35 0 194.7 0 295 0 C295 96.03 295 192.06 295 291 C197.65 291 100.3 291 0 291 C0 194.97 0 98.94 0 0 Z " fill="#000000" transform="translate(0,0)"/>
<path d="M0 0 C8.25 0 16.5 0 25 0 C28.34113058 6.68226116 31.17399973 12.81868542 33.5 19.8125 C34.10135375 21.57473504 34.70421855 23.33645516 35.30859375 25.09765625 C35.74147705 26.36246826 35.74147705 26.36246826 36.18310547 27.65283203 C37.58410498 31.67829806 39.12884128 35.64444378 40.68505859 39.61181641 C42.06897346 43.17772254 43.41605214 46.75649957 44.75390625 50.33984375 C46.62800307 55.3501045 48.51135447 60.35661501 50.41255188 65.35665894 C51.47107744 68.14140069 52.52548226 70.92769472 53.57958984 73.71411133 C54.1189273 75.1369491 54.65999912 76.55913044 55.20263672 77.98071289 C56.00166899 80.075275 56.79441194 82.17212289 57.5859375 84.26953125 C58.0504834 85.49260986 58.5150293 86.71568848 58.99365234 87.97583008 C60 91 60 91 60 94 C52.41 94 44.82 94 37 94 C35.02 88.72 33.04 83.44 31 78 C12.685 77.505 12.685 77.505 -6 77 C-6.66 79.31 -7.32 81.62 -8 84 C-9.17414495 87.39884064 -10.39023523 90.78047046 -12 94 C-19.26 94 -26.52 94 -34 94 C-32.9327021 88.66351048 -31.34778056 83.71304435 -29.625 78.5625 C-29.32078125 77.63373047 -29.0165625 76.70496094 -28.703125 75.74804688 C-27.10273026 70.943443 -25.30044122 66.51917277 -23 62 C-22.12550816 59.50449889 -21.28948379 57.02125467 -20.5 54.5 C-19.38314718 50.93327649 -18.24663598 47.49059113 -16.5625 44.140625 C-14.48570477 39.96626658 -13.01430526 35.65404934 -11.5 31.25 C-11.20480469 30.40695313 -10.90960938 29.56390625 -10.60546875 28.6953125 C-8.83299002 23.58869978 -7.21448739 18.4614234 -5.74072266 13.26049805 C-4.74907193 10.23423105 -3.37435089 7.48958943 -1.8671875 4.69140625 C-0.85972257 2.83153821 -0.85972257 2.83153821 0 0 Z " fill="#F9F9F9" transform="translate(151,98)"/>
<path d="M0 0 C7.92 0 15.84 0 24 0 C24 31.02 24 62.04 24 94 C16.08 94 8.16 94 0 94 C0 62.98 0 31.96 0 0 Z " fill="#F3F3F3" transform="translate(80,98)"/>
<path d="M0 0 C3.41481364 0.05537536 5.24139683 0.67321105 7.8125 2.9375 C9.89237686 5.3602137 10.79272374 7.24923515 11.0625 10.4375 C10.71852346 14.41234006 9.22310602 16.7746787 6.2265625 19.359375 C2.62659386 21.38711244 -0.73765636 21.51208981 -4.6875 20.4375 C-7.86207096 17.8460135 -9.23330349 16.36314305 -10.16015625 12.43359375 C-10.46036653 8.37690613 -9.83871947 6.61973885 -7.25 3.5 C-6.404375 2.819375 -5.55875 2.13875 -4.6875 1.4375 C-3.6875 0.4375 -3.6875 0.4375 0 0 Z " fill="#6F6F6F" transform="translate(249.6875,186.5625)"/>
<path d="M0 0 C0.66 0 1.32 0 2 0 C2.23074219 0.58265625 2.46148437 1.1653125 2.69921875 1.765625 C3.02535156 2.58546875 3.35148438 3.4053125 3.6875 4.25 C4.04714844 5.15492188 4.40679687 6.05984375 4.77734375 6.9921875 C5.62168806 9.06932847 6.49050209 11.13663089 7.37890625 13.1953125 C7.83136719 14.24460938 8.28382813 15.29390625 8.75 16.375 C9.17796875 17.35210937 9.6059375 18.32921875 10.046875 19.3359375 C11 22 11 22 11 26 C4.07 26 -2.86 26 -10 26 C-8.02587714 18.10350858 -5.36807163 10.40975758 -2 3 C-1.34 3 -0.68 3 0 3 C0 2.01 0 1.02 0 0 Z " fill="#181818" transform="translate(163,130)"/>
<path d="M0 0 C2.71593153 0.61833818 3.58977549 1.39373887 5.29296875 3.5703125 C7.45840321 7.30512106 8.02960029 10.19250221 7.23046875 14.5078125 C5.35546875 17.5078125 5.35546875 17.5078125 2.23046875 19.5078125 C-2.63632362 19.81444401 -7.65173677 19.27445567 -11.76953125 16.5078125 C-12.9267164 11.87907192 -13.17994015 9.61591653 -11.51953125 5.1328125 C-8.38719546 0.43430881 -5.3021155 -0.12109236 0 0 Z " fill="#757575" transform="translate(43.76953125,77.4921875)"/>
<path d="M0 0 C3.03978021 0.68164768 4.80055419 2.23591662 6.93359375 4.43359375 C8.36021594 7.28683812 8.24393243 9.26813924 7.93359375 12.43359375 C6.13365601 15.13350037 4.84982075 16.97548025 1.93359375 18.43359375 C-1.0777643 18.77915943 -3.16001796 19.01153712 -6.06640625 18.43359375 C-9.62993509 15.3897462 -10.8809904 13.49046409 -11.69140625 8.87109375 C-11.06640625 5.43359375 -11.06640625 5.43359375 -9.06640625 2.49609375 C-5.70670109 0.18629645 -3.9771532 -0.24810218 0 0 Z " fill="#707070" transform="translate(236.06640625,209.56640625)"/>
<path d="M0 0 C3.0625 1.4375 3.0625 1.4375 5 4 C5.93647077 8.48168156 5.50134321 11.931921 3.5625 16.0625 C-0.16753358 18.88276929 -3.48062688 18.43455511 -8 18 C-8 17.34 -8 16.68 -8 16 C-8.639375 15.690625 -9.27875 15.38125 -9.9375 15.0625 C-12 14 -12 14 -13 13 C-13.52129014 8.78695019 -13.66488173 5.18522395 -11.5625 1.4375 C-7.70990834 -0.72370996 -4.31043653 -0.72863251 0 0 Z " fill="#6F6F6F" transform="translate(61,57)"/>
<path d="M0 0 C2.03323755 3.09052108 2.08290677 4.73215261 1.5625 8.375 C0.1875 11.25 0.1875 11.25 -1.4375 13.375 C-2.0975 13.375 -2.7575 13.375 -3.4375 13.375 C-3.4375 14.035 -3.4375 14.695 -3.4375 15.375 C-10.68278302 15.97877358 -10.68278302 15.97877358 -13.9375 13.375 C-15.9745021 9.30099581 -15.87615483 6.90776656 -15.4375 2.375 C-13.4375 -0.625 -13.4375 -0.625 -11.75 -1.3125 C-3.61727528 -2.41151685 -3.61727528 -2.41151685 0 0 Z " fill="#707070" transform="translate(82.4375,41.625)"/>
<path d="M0 0 C3.75514634 2.0408404 4.77457968 3.28395898 6.0625 7.375 C5.98300322 11.98581321 5.30792756 13.77083262 2 17 C-1.16493059 17.81152066 -3.82825786 17.76238206 -7 17 C-9.72246943 14.87514581 -10.73121981 13.42877889 -11.37109375 10.02734375 C-11.5804199 6.63372278 -11.24115642 4.38585027 -9.4375 1.5 C-6.03618625 -0.59311615 -3.92927257 -0.55147685 0 0 Z " fill="#717171" transform="translate(219,228)"/>
<path d="M0 0 C2.3515625 0.3125 2.3515625 0.3125 4.375 1 C6.83445333 4.68917999 7.0557995 7.71699557 6.375 12 C4.8125 14.5 4.8125 14.5 2.375 16 C-1.56516013 16.56288002 -3.68282196 16.60396028 -7.0625 14.4375 C-9.23848954 11.04295632 -9.18127159 8.9634351 -8.625 5 C-6.48573583 0.53544868 -4.76093689 -0.36799512 0 0 Z " fill="#6D6D6D" transform="translate(196.625,241)"/>
<path d="M0 0 C2.89360359 0.45994906 4.16049393 0.93404399 5.94140625 3.30859375 C6.5029422 7.73068936 6.74033687 10.03030476 4.37890625 13.80859375 C0.96607693 15.90879641 -1.12548248 15.94070092 -5.05859375 15.30859375 C-8.02977743 12.71833106 -8.93867901 11.1479969 -9.49609375 7.24609375 C-8.5774576 1.07810816 -6.3165959 -0.38388152 0 0 Z " fill="#707070" transform="translate(97.05859375,27.69140625)"/>
<path d="M0 0 C2.5 1.5625 2.5 1.5625 4 4 C3.93913078 7.46954545 3.6274029 9.91947278 1.875 12.9375 C-1.1053157 14.62634556 -3.65435012 14.29871874 -7 14 C-7.99 13.34 -8.98 12.68 -10 12 C-10.3984375 9.94140625 -10.3984375 9.94140625 -10.375 7.5625 C-10.38273437 6.78003906 -10.39046875 5.99757813 -10.3984375 5.19140625 C-9.34757975 -0.58831135 -5.12643201 -0.62956183 0 0 Z " fill="#6C6C6C" transform="translate(121,20)"/>
<path d="M0 0 C3.33334898 0.76923438 4.48952434 1.74875737 6.4375 4.5625 C6.85963381 7.99987531 7.04606522 10.38340489 5.4375 13.5 C2.1998527 15.22000013 -0.99042027 15.23226495 -4.5625 14.5625 C-6.98495734 12.51855162 -7.43233436 11.1970575 -8.0625 8.125 C-7.1927593 3.66757892 -4.41787013 0.96977637 0 0 Z " fill="#6E6E6E" transform="translate(173.5625,249.4375)"/>
<path d="M0 0 C0.70125 -0.01675781 1.4025 -0.03351562 2.125 -0.05078125 C2.74375 0.06910156 3.3625 0.18898438 4 0.3125 C6.45331002 3.99246503 6.39507893 5.96663172 6 10.3125 C2.29584707 12.78193529 0.37855495 12.78163089 -4 12.3125 C-6 10.6875 -6 10.6875 -7 8.3125 C-6.6763275 2.91795829 -5.7104274 0.03149133 0 0 Z " fill="#6A6A6A" transform="translate(141,16.6875)"/>
<path d="M0 0 C2.73251347 1.99399631 3.83247946 3.1623973 4.5 6.5 C3.83247946 9.8376027 2.73251347 11.00600369 0 13 C-2.5 13.5625 -2.5 13.5625 -5 13 C-7.375 10.8125 -7.375 10.8125 -9 8 C-8.9303003 5.07261258 -8.40278716 3.58404138 -6.75 1.1875 C-4.29122834 -0.4809522 -2.91471407 -0.49763411 0 0 Z " fill="#6C6C6C" transform="translate(153,255)"/>
<path d="M0 0 C1.8125 1.125 1.8125 1.125 3 3 C3.39769128 6.18153026 3.55198782 8.12844028 1.8125 10.875 C-0.68036381 12.42229478 -2.11967335 12.50405716 -5 12 C-7.2855347 9.87208838 -7.92303658 8.52591672 -8.375 5.4375 C-8 3 -8 3 -6.8125 1.1875 C-4.35092224 -0.42525784 -2.88934264 -0.4334014 0 0 Z " fill="#6A6A6A" transform="translate(130,255)"/>
<path d="M0 0 C1.875 1.0625 1.875 1.0625 3 3 C2.66666667 9.33333333 2.66666667 9.33333333 0 12 C-2.4375 12.375 -2.4375 12.375 -5 12 C-7.2855347 9.87208838 -7.92303658 8.52591672 -8.375 5.4375 C-8 3 -8 3 -6.8125 1.1875 C-4.35092224 -0.42525784 -2.88934264 -0.4334014 0 0 Z " fill="#6D6D6D" transform="translate(166,18)"/>
<path d="M0 0 C3.0625 0.375 3.0625 0.375 5 2 C6.41418205 5.16111281 5.94127792 7.07958281 5.0625 10.375 C4.0625 11.375 4.0625 11.375 1.1875 11.5625 C-1.9375 11.375 -1.9375 11.375 -4.9375 9.375 C-5.25 5.875 -5.25 5.875 -4.9375 2.375 C-2.9375 0.375 -2.9375 0.375 0 0 Z " fill="#737373" transform="translate(68.9375,79.625)"/>
<path d="M0 0 C1.8125 1.125 1.8125 1.125 3 3 C3.3125 6.0625 3.3125 6.0625 3 9 C1 11 1 11 -2.5 11.3125 C-4.2325 11.1578125 -4.2325 11.1578125 -6 11 C-8.15502531 7.76746204 -8.46856135 6.74849077 -8 3 C-5.85607122 -0.27231235 -3.76836426 -0.56525464 0 0 Z " fill="#6D6D6D" transform="translate(224,193)"/>
<path d="M0 0 C6.57692308 0.57692308 6.57692308 0.57692308 8 2 C8.26293056 6.03160191 8.29404844 7.55892734 6 11 C3 11.375 3 11.375 0 11 C-2.30163882 7.54754176 -2.34490322 6.05261287 -2 2 C-1.34 1.34 -0.68 0.68 0 0 Z " fill="#6F6F6F" transform="translate(79,66)"/>
<path d="M0 0 C1.134375 0.020625 2.26875 0.04125 3.4375 0.0625 C4.81875018 2.82500036 4.62829306 5.00981099 4.4375 8.0625 C2.4375 10.0625 2.4375 10.0625 -0.5625 10.3125 C-3.5625 10.0625 -3.5625 10.0625 -5.5625 8.0625 C-4.86274661 0.08531134 -4.86274661 0.08531134 0 0 Z " fill="#6C6C6C" transform="translate(209.5625,207.9375)"/>
<path d="M0 0 C0.66 0.66 1.32 1.32 2 2 C1.67028521 5.29714793 1.3773161 6.6226839 -1 9 C-3.5 9.3125 -3.5 9.3125 -6 9 C-8 6 -8 6 -7.75 2.875 C-7.37875 1.451875 -7.37875 1.451875 -7 0 C-4.29393021 -1.35303489 -2.8671629 -0.7884698 0 0 Z " fill="#686868" transform="translate(198,221)"/>
<path d="M0 0 C3.0625 0.1875 3.0625 0.1875 5.0625 2.1875 C5.3125 4.6875 5.3125 4.6875 5.0625 7.1875 C3.0625 9.1875 3.0625 9.1875 0.0625 9.4375 C-2.9375 9.1875 -2.9375 9.1875 -4.9375 7.1875 C-4.23164336 0.2701049 -4.23164336 0.2701049 0 0 Z " fill="#696969" transform="translate(185.9375,23.8125)"/>
<path d="M0 0 C3.29714793 0.32971479 4.6226839 0.6226839 7 3 C6.67028521 6.29714793 6.3773161 7.6226839 4 10 C0.70285207 9.67028521 -0.6226839 9.3773161 -3 7 C-2.67028521 3.70285207 -2.3773161 2.3773161 0 0 Z " fill="#717171" transform="translate(103,251)"/>
<path d="M0 0 C2.375 0.6875 2.375 0.6875 3.375 1.6875 C3.66886153 5.40974599 3.52309171 6.46536243 1.375 9.6875 C-1.125 10 -1.125 10 -3.625 9.6875 C-5.625 7.6875 -5.625 7.6875 -5.9375 4.6875 C-5.834375 3.6975 -5.73125 2.7075 -5.625 1.6875 C-2.625 -0.3125 -2.625 -0.3125 0 0 Z " fill="#6A6A6A" transform="translate(97.625,55.3125)"/>
<path d="M0 0 C2.375 -0.125 2.375 -0.125 5 0 C7 2 7 2 7.125 5.625 C7.08375 6.73875 7.0425 7.8525 7 9 C4.125 9.125 4.125 9.125 1 9 C0.34 8.34 -0.32 7.68 -1 7 C-0.625 3.375 -0.625 3.375 0 0 Z " fill="#666666" transform="translate(109,46)"/>
<path d="M0 0 C2.5625 0.1875 2.5625 0.1875 4.5625 2.1875 C4.00694444 6.74305556 4.00694444 6.74305556 2.5625 8.1875 C0.125 8.375 0.125 8.375 -2.4375 8.1875 C-3.0975 7.5275 -3.7575 6.8675 -4.4375 6.1875 C-3.71780303 0.28598485 -3.71780303 0.28598485 0 0 Z " fill="#6A6A6A" transform="translate(179.4375,229.8125)"/>
<path d="M0 0 C2.5625 0.1875 2.5625 0.1875 4.5625 2.1875 C4.00694444 6.74305556 4.00694444 6.74305556 2.5625 8.1875 C0.125 8.375 0.125 8.375 -2.4375 8.1875 C-3.0975 7.5275 -3.7575 6.8675 -4.4375 6.1875 C-3.71780303 0.28598485 -3.71780303 0.28598485 0 0 Z " fill="#656565" transform="translate(207.4375,33.8125)"/>
<path d="M0 0 C2.5625 0.1875 2.5625 0.1875 4.5625 2.1875 C4.00694444 6.74305556 4.00694444 6.74305556 2.5625 8.1875 C0.0625 8.3125 0.0625 8.3125 -2.4375 8.1875 C-3.4375 7.1875 -3.4375 7.1875 -3.5625 4.1875 C-3.39891479 0.26145498 -3.39891479 0.26145498 0 0 Z " fill="#6A6A6A" transform="translate(83.4375,242.8125)"/>
<path d="M0 0 C2.625 0.375 2.625 0.375 5 1 C5.625 3.375 5.625 3.375 6 6 C4 8 4 8 1.375 8.125 C0.59125 8.08375 -0.1925 8.0425 -1 8 C-1.625 5.125 -1.625 5.125 -2 2 C-1.34 1.34 -0.68 0.68 0 0 Z " fill="#656565" transform="translate(161,236)"/>
<path d="M0 0 C2.5 0.125 2.5 0.125 3.5 1.125 C3.625 3.625 3.625 3.625 3.5 6.125 C2.5 7.125 2.5 7.125 0 7.25 C-2.5 7.125 -2.5 7.125 -3.5 6.125 C-3.625 3.625 -3.625 3.625 -3.5 1.125 C-2.5 0.125 -2.5 0.125 0 0 Z " fill="#696969" transform="translate(128.5,40.875)"/>
<path d="M0 0 C1.21236328 0.02707031 1.21236328 0.02707031 2.44921875 0.0546875 C3.37154297 0.08949219 3.37154297 0.08949219 4.3125 0.125 C4.3125 0.455 4.3125 0.785 4.3125 1.125 C2.7346875 1.2178125 2.7346875 1.2178125 1.125 1.3125 C-3.52897176 2.30433005 -5.02996786 3.17896743 -7.6875 7.125 C-8.09021849 10.50163965 -7.98303817 13.74272979 -7.6875 17.125 C-8.3475 16.795 -9.0075 16.465 -9.6875 16.125 C-10.69562923 11.54964426 -11.07453667 9.169999 -9.4375 4.75 C-6.74616652 0.71299979 -4.66166296 -0.13512067 0 0 Z " fill="#515151" transform="translate(41.6875,77.875)"/>
<path d="M0 0 C1.67542976 0.28604898 3.34385343 0.61781233 5 1 C5.38218767 2.65614657 5.71395102 4.32457024 6 6 C5 7 5 7 2.5 7.125 C0 7 0 7 -1 6 C-1.125 3.5 -1.125 3.5 -1 1 C-0.67 0.67 -0.34 0.34 0 0 Z " fill="#636363" transform="translate(62,230)"/>
<path d="M0 0 C2.625 0.375 2.625 0.375 5 1 C5.042721 2.66611905 5.04063832 4.33382885 5 6 C4 7 4 7 1.4375 7.0625 C0.2309375 7.0315625 0.2309375 7.0315625 -1 7 C-1.625 4.625 -1.625 4.625 -2 2 C-1.34 1.34 -0.68 0.68 0 0 Z " fill="#666666" transform="translate(144,240)"/>
<path d="M0 0 C1.66611905 -0.042721 3.33382885 -0.04063832 5 0 C6 1 6 1 6.0625 4.0625 C6.041875 5.031875 6.02125 6.00125 6 7 C4.02 7 2.04 7 0 7 C0 4.69 0 2.38 0 0 Z " fill="#626262" transform="translate(224,48)"/>
<path d="M0 0 C1.2065625 0.0309375 1.2065625 0.0309375 2.4375 0.0625 C3.0625 2.4375 3.0625 2.4375 3.4375 5.0625 C2.7775 5.7225 2.1175 6.3825 1.4375 7.0625 C-0.6875 6.6875 -0.6875 6.6875 -2.5625 6.0625 C-2.94468767 4.40635343 -3.27645102 2.73792976 -3.5625 1.0625 C-2.5625 0.0625 -2.5625 0.0625 0 0 Z " fill="#636363" transform="translate(145.5625,37.9375)"/>
<path d="M0 0 C1.65 0 3.3 0 5 0 C5.33 1.65 5.66 3.3 6 5 C4.34385343 5.38218767 2.67542976 5.71395102 1 6 C0 5 0 5 -0.0625 2.4375 C-0.041875 1.633125 -0.02125 0.82875 0 0 Z " fill="#5E5E5E" transform="translate(160,38)"/>
<path d="M0 0 C2.0625 0.4375 2.0625 0.4375 4 1 C3.67 2.65 3.34 4.3 3 6 C1.35 5.67 -0.3 5.34 -2 5 C-1.125 1.125 -1.125 1.125 0 0 Z " fill="#5C5C5C" transform="translate(46,213)"/>
<path d="M0 0 C2.0625 0.4375 2.0625 0.4375 4 1 C3.67 2.65 3.34 4.3 3 6 C1.68 6 0.36 6 -1 6 C-1.042721 4.33388095 -1.04063832 2.66617115 -1 1 C-0.67 0.67 -0.34 0.34 0 0 Z " fill="#666666" transform="translate(127,241)"/>
<path d="M0 0 C0.94875 0.04125 1.8975 0.0825 2.875 0.125 C3.205 0.785 3.535 1.445 3.875 2.125 C2.451875 2.4653125 2.451875 2.4653125 1 2.8125 C-2.31823388 3.81583714 -2.31823388 3.81583714 -3.5 6.75 C-3.70625 7.53375 -3.9125 8.3175 -4.125 9.125 C-4.455 9.125 -4.785 9.125 -5.125 9.125 C-5.25 5.75 -5.25 5.75 -5.125 2.125 C-3.125 0.125 -3.125 0.125 0 0 Z " fill="#575757" transform="translate(69.125,79.875)"/>
<path d="M0 0 C0 0.33 0 0.66 0 1 C-1.98 1 -3.96 1 -6 1 C-7.96301592 4.50538557 -8.95902388 8.13351728 -10 12 C-10.33 12 -10.66 12 -11 12 C-11.48192771 4.77108434 -11.48192771 4.77108434 -9.4375 1.5 C-6.17971981 -0.50478781 -3.75217167 -0.28862859 0 0 Z " fill="#5A5A5A" transform="translate(219,228)"/>
<path d="M0 0 C1.65 0.33 3.3 0.66 5 1 C4.67 2.32 4.34 3.64 4 5 C2.35 4.67 0.7 4.34 -1 4 C-0.67 2.68 -0.34 1.36 0 0 Z " fill="#5D5D5D" transform="translate(242,66)"/>
<path d="M0 0 C3.625 0.375 3.625 0.375 7 1 C7 1.33 7 1.66 7 2 C6.071875 2.2475 5.14375 2.495 4.1875 2.75 C0.83541675 4.06454245 -0.1877803 4.97963384 -2 8 C-2.125 5.125 -2.125 5.125 -2 2 C-1.34 1.34 -0.68 0.68 0 0 Z " fill="#5B5B5B" transform="translate(79,66)"/>
<path d="M0 0 C2.475 0.495 2.475 0.495 5 1 C4.67 2.32 4.34 3.64 4 5 C2.68 5 1.36 5 0 5 C0 3.35 0 1.7 0 0 Z " fill="#5E5E5E" transform="translate(109,239)"/>
<path d="M0 0 C1.32 0.33 2.64 0.66 4 1 C3.0409375 1.804375 3.0409375 1.804375 2.0625 2.625 C-0.38529404 5.44367193 -0.66714612 7.33860732 -1 11 C-1.33 11 -1.66 11 -2 11 C-2.25 3.375 -2.25 3.375 0 0 Z " fill="#5C5C5C" transform="translate(69,41)"/>
<path d="M0 0 C2.475 0.495 2.475 0.495 5 1 C4.67 2.32 4.34 3.64 4 5 C2.68 4.67 1.36 4.34 0 4 C0 2.68 0 1.36 0 0 Z " fill="#5C5C5C" transform="translate(178,41)"/>
<path d="M0 0 C0.598125 0.226875 1.19625 0.45375 1.8125 0.6875 C1.19375 1.1 0.575 1.5125 -0.0625 1.9375 C-2.25518281 3.74323879 -3.11538417 5.0965534 -4.1875 7.6875 C-4.875 5.375 -4.875 5.375 -5.1875 2.6875 C-3.60587179 0.1901923 -2.97595617 -0.4251366 0 0 Z " fill="#5B5B5B" transform="translate(105.1875,251.3125)"/>
<path d="M0 0 C0.99 0 1.98 0 3 0 C3 1.65 3 3.3 3 5 C1.68 4.67 0.36 4.34 -1 4 C-0.67 2.68 -0.34 1.36 0 0 Z " fill="#515151" transform="translate(93,234)"/>
<path d="M0 0 C-0.61875 0.0825 -1.2375 0.165 -1.875 0.25 C-4.15042479 0.79923543 -4.15042479 0.79923543 -5.125 2.875 C-5.41375 3.57625 -5.7025 4.2775 -6 5 C-6.66 5.99 -7.32 6.98 -8 8 C-8.36075949 3.55063291 -8.36075949 3.55063291 -6.8125 1.1875 C-4.44017475 -0.36678206 -2.77958655 -0.22537188 0 0 Z " fill="#535353" transform="translate(166,18)"/>
</svg>
