<?xml version="1.0" encoding="UTF-8"?>
<svg version="1.1" xmlns="http://www.w3.org/2000/svg" width="1920" height="1920">
<path d="M0 0 C633.6 0 1267.2 0 1920 0 C1920 633.6 1920 1267.2 1920 1920 C1286.4 1920 652.8 1920 0 1920 C0 1286.4 0 652.8 0 0 Z " fill="#02091C" transform="translate(0,0)"/>
<path d="M0 0 C3 1 3 1 4.39265442 3.30947876 C5.10865059 4.84358902 5.10865059 4.84358902 5.83911133 6.40869141 C6.38532639 7.56243256 6.93154144 8.71617371 7.49430847 9.90487671 C7.7828237 10.52614819 8.07133892 11.14741966 8.36859703 11.78751755 C9.9144671 15.11463232 11.49473277 18.42543952 13.06884766 21.73925781 C13.39377921 22.42588438 13.71871077 23.11251095 14.05348873 23.81994438 C17.3780822 30.8336043 20.83845485 37.77632685 24.32421875 44.7109375 C24.9363083 45.93128519 25.5482973 47.15168332 26.16018677 48.37213135 C28.00041111 52.04086782 29.84368249 55.70806835 31.6875 59.375 C34.15240649 64.27731009 36.61559596 69.18047246 39.07421875 74.0859375 C39.37478558 74.68555046 39.6753524 75.28516342 39.98502731 75.90294647 C43.85978913 83.63978852 47.65726116 91.40761214 51.36328125 99.2265625 C55.76172825 108.50192499 60.30760489 117.69780788 64.90625 126.875 C65.42830237 127.91694456 65.42830237 127.91694456 65.96090126 128.97993851 C68.47107227 133.98806355 70.98512866 138.994234 73.5 144 C76.36718349 149.70703137 79.23276181 155.4148599 82.09375 161.125 C82.4419278 161.8198349 82.79010559 162.5146698 83.14883423 163.2305603 C87.82842518 172.57649563 92.40708079 181.96300348 96.88317871 191.40844727 C100.57587387 199.17504565 104.39683736 206.8747199 108.25 214.5625 C108.56527145 215.19160278 108.88054291 215.82070557 109.20536804 216.46887207 C111.46736763 220.98069467 113.73326542 225.49055483 116 230 C118.5859621 235.14451688 121.17027077 240.28985431 123.75 245.4375 C124.06313141 246.06224213 124.37626282 246.68698425 124.69888306 247.33065796 C129.33326822 256.58484955 133.85512143 265.88847071 138.2973175 275.23658752 C141.70138838 282.39713247 145.20609345 289.49922141 148.77874756 296.57684326 C153.01300325 304.97827188 157.21684504 313.39509694 161.4295826 321.80733681 C163.02513235 324.99327764 164.62144739 328.17883033 166.21948242 331.36352539 C172.88197355 344.64240179 179.48939762 357.93983042 185.85871887 371.36268616 C191.71659443 383.66840102 197.87726104 395.82463293 204 408 C213.87620971 427.63932797 223.53244599 447.36315334 232.88694763 467.2563324 C236.79181347 475.53961922 240.87890435 483.69228385 245.18212891 491.77539062 C252.72572207 505.96473972 259.76306382 520.40544015 266.63964844 534.92773438 C269.29449176 540.5102957 272.01622144 546.05364727 274.8046875 551.5703125 C275.28862221 552.52932968 275.28862221 552.52932968 275.78233337 553.50772095 C277.3738237 556.65929503 278.97235506 559.8070082 280.58129883 562.94970703 C281.1564624 564.08520996 281.73162598 565.22071289 282.32421875 566.390625 C283.0989856 567.9070459 283.0989856 567.9070459 283.8894043 569.45410156 C285 572 285 572 285 575 C242.76 575 200.52 575 157 575 C140.04451641 542.2193984 140.04451641 542.2193984 134.1875 530.375 C129.27063697 520.4745758 124.25317481 510.63657383 119.05078125 500.8828125 C116.97488932 496.95245712 114.98781391 492.97562782 113 489 C-1.84 488.67 -116.68 488.34 -235 488 C-233.6794728 484.69868201 -232.35358042 481.55010487 -230.8203125 478.359375 C-230.17908447 477.02181152 -230.17908447 477.02181152 -229.52490234 475.65722656 C-229.06293457 474.6978418 -228.6009668 473.73845703 -228.125 472.75 C-227.63596191 471.73131836 -227.14692383 470.71263672 -226.64306641 469.66308594 C-225.60967669 467.51076645 -224.57564655 465.35875435 -223.54101562 463.20703125 C-222.09203583 460.19153717 -220.64680014 457.17428658 -219.203125 454.15625 C-214.74203904 444.83629404 -210.2609165 435.52650718 -205.7421875 426.234375 C-205.37157196 425.47215637 -205.00095642 424.70993774 -204.61911011 423.92462158 C-202.79395633 420.17183887 -200.9672429 416.41982603 -199.13818359 412.66894531 C-198.45125844 411.2585799 -197.76456976 409.84809929 -197.078125 408.4375 C-196.74450958 407.75202087 -196.41089417 407.06654175 -196.06716919 406.36029053 C-193.15503361 400.35766611 -190.31706181 394.32093784 -187.51251221 388.26733398 C-185.10728944 383.10728944 -185.10728944 383.10728944 -184 382 C-180.85235776 381.90192941 -177.72663931 381.87009687 -174.57859802 381.87974548 C-173.57727327 381.87889106 -172.57594852 381.87803663 -171.54428059 381.87715632 C-168.16158273 381.87549849 -164.77893358 381.88102782 -161.39624023 381.88647461 C-158.98233033 381.88675644 -156.56842035 381.88659882 -154.1545105 381.8860321 C-148.94342508 381.88580379 -143.73235085 381.88865513 -138.52126884 381.89426994 C-130.9868371 381.90238284 -123.45241143 381.90499995 -115.91797579 381.90625793 C-103.69506963 381.90844879 -91.47217012 381.91510977 -79.24926758 381.92456055 C-67.37296583 381.93373381 -55.4966659 381.94081506 -43.62036133 381.94506836 C-42.52303454 381.94546244 -42.52303454 381.94546244 -41.40353953 381.94586449 C-37.73371272 381.94716949 -34.06388589 381.94843321 -30.39405906 381.94967639 C0.07063206 381.96005004 30.53531511 381.97774337 61 382 C59.22838042 378.17621376 57.45590785 374.35282437 55.68269348 370.52977753 C55.08141333 369.23311933 54.48035373 367.93635883 53.87953186 366.63948822 C49.65065156 357.51198798 45.35828799 348.4202707 40.92657471 339.38928223 C35.70024969 328.73282584 30.58389211 318.03402107 25.625 307.25 C20.56792211 296.25690624 15.31622264 285.36947871 10 274.5 C2.94446583 260.07296539 -3.90560344 245.56905633 -10.62304688 230.98144531 C-12.66470165 226.56075593 -14.73206694 222.15255339 -16.8125 217.75 C-17.28151733 216.75202393 -17.28151733 216.75202393 -17.76000977 215.73388672 C-19.6773928 211.6855838 -21.66138704 207.67413386 -23.67503357 203.67280579 C-29.12401743 192.84120161 -34.31651358 181.89358792 -39.49304199 170.92974854 C-40.74450705 168.27958366 -41.99686611 165.62984491 -43.25 162.98046875 C-43.65679993 162.12036194 -44.06359985 161.26025513 -44.48272705 160.37408447 C-46.91753184 155.24049843 -49.40014732 150.13438176 -51.9375 145.05078125 C-52.5056543 143.90343506 -53.07380859 142.75608887 -53.65917969 141.57397461 C-54.68835949 139.50440079 -55.72989801 137.44090735 -56.78613281 135.38500977 C-59.96790564 128.95665871 -59.96790564 128.95665871 -60.1015625 124.97265625 C-58.44004116 120.48890541 -56.33093558 116.30070203 -54.125 112.0625 C-53.11413773 110.08162006 -52.10507656 108.09982015 -51.09765625 106.1171875 C-50.58090332 105.10237305 -50.06415039 104.08755859 -49.53173828 103.04199219 C-47.1390438 98.29016348 -44.84635917 93.49236757 -42.5625 88.6875 C-42.1085083 87.73415771 -41.6545166 86.78081543 -41.18676758 85.79858398 C-40.25752415 83.84656885 -39.32873435 81.89433771 -38.40039062 79.94189453 C-36.04720501 74.99839965 -33.68087604 70.06123184 -31.3125 65.125 C-30.82620117 64.11123291 -30.33990234 63.09746582 -29.83886719 62.05297852 C-25.17889374 52.35066335 -20.47611885 42.66923973 -15.77432251 32.9871521 C-10.45069895 22.02209796 -5.17904408 11.03424113 0 0 Z " fill="#FDFDFD" transform="translate(1068,736)"/>
<path d="M0 0 C41.91 0 83.82 0 127 0 C126.08310924 4.58445382 124.67086218 8.0342857 122.5703125 12.1171875 C122.22460709 12.80157394 121.87890167 13.48596039 121.52272034 14.19108582 C120.781222 15.65790069 120.03710533 17.12339436 119.2906189 18.587677 C117.31490443 22.46467072 115.35973392 26.35201313 113.40234375 30.23828125 C113.01442154 31.0073027 112.62649933 31.77632416 112.2268219 32.56864929 C109.30668398 38.36563116 106.46305439 44.19479664 103.6875 50.0625 C98.72212749 60.53752811 93.64948555 70.95865976 88.5625 81.375 C88.1346521 82.25123016 87.7068042 83.12746033 87.26599121 84.03024292 C85.06099322 88.54581047 82.8553778 93.06107604 80.64941406 97.57617188 C76.40836279 106.25728626 72.17305521 114.94120313 67.9375 123.625 C67.52619843 124.46822815 67.11489685 125.3114563 66.69113159 126.18023682 C64.20751079 131.27205179 61.72409362 136.36396603 59.24078369 141.45593262 C57.99445632 144.01136661 56.74797341 146.5667247 55.50146484 149.12207031 C53.04193079 154.16436633 50.58311976 159.20701437 48.125 164.25 C47.72475616 165.07111267 47.32451233 165.89222534 46.91213989 166.73822021 C42.04239822 176.73072208 37.19457364 186.73319406 32.375 196.75 C25.27376168 211.5048671 18.04702667 226.1980499 10.83239746 240.89770508 C4.19031726 254.43230698 -2.43150645 267.97510965 -8.96801758 281.56103516 C-13.67777173 291.34707244 -18.42851668 301.11282394 -23.1875 310.875 C-23.78942169 312.10978088 -23.78942169 312.10978088 -24.40350342 313.36950684 C-26.45017285 317.56777683 -28.4972188 321.7658631 -30.54443359 325.96386719 C-34.13785586 333.33295452 -37.72801657 340.70363071 -41.31835938 348.07421875 C-43.29158533 352.12503963 -45.2649062 356.17581425 -47.23828125 360.2265625 C-47.82520248 361.43134247 -47.82520248 361.43134247 -48.42398071 362.66046143 C-50.82854138 367.59610282 -53.23377466 372.53141586 -55.63949585 377.4664917 C-63.76341765 394.13189816 -71.8812961 410.80010114 -79.96200562 427.48651123 C-83.94208345 435.70509877 -87.93274602 443.91840466 -91.9375 452.125 C-92.35870117 452.98838989 -92.77990234 453.85177979 -93.21386719 454.74133301 C-95.25955946 458.93441432 -97.30643132 463.12691175 -99.35546875 467.31835938 C-103.36105586 475.52147689 -107.32415851 483.74099992 -111.17431641 492.01843262 C-113.68674012 497.40195533 -116.33951592 502.67903184 -119 508 C-161.9 508 -204.8 508 -249 508 C-248.10588362 503.5294181 -247.04394856 500.74882897 -245.0078125 496.7578125 C-244.70663513 496.16243683 -244.40545776 495.56706116 -244.09515381 494.9536438 C-243.44795888 493.67536454 -242.79813546 492.39841331 -242.14593506 491.12268066 C-240.40218786 487.71066142 -238.67855284 484.28849698 -236.953125 480.8671875 C-236.43484634 479.84117432 -236.43484634 479.84117432 -235.90609741 478.79443359 C-233.14534977 473.31830871 -230.48764995 467.7983069 -227.875 462.25 C-221.764516 449.31873308 -215.30748698 436.55910992 -208.87451172 423.78613281 C-204.38514051 414.85855373 -199.97494885 405.90145313 -195.6875 396.875 C-188.92922309 382.65581717 -181.83498591 368.60704864 -174.76123047 354.54296875 C-168.91171689 342.90653847 -163.08518911 331.26604985 -157.5 319.5 C-150.80869327 305.40374525 -143.77217537 291.48216839 -136.76123047 277.54296875 C-130.37760478 264.84402989 -124.06159179 252.12335938 -117.96337891 239.28466797 C-113.7065127 230.33885349 -109.28200096 221.48128246 -104.8258667 212.63342285 C-98.49031788 200.0498207 -92.18826568 187.45852754 -86.1796875 174.71484375 C-81.02419908 163.83998536 -75.57874368 153.10657386 -70.16162109 142.36035156 C-65.93999189 133.97103799 -61.81073649 125.54589812 -57.78125 117.0625 C-51.09655021 103.00250038 -44.0878335 89.10595586 -37.09387207 75.19812012 C-30.77751442 62.63608807 -24.47606708 50.07349396 -18.4375 37.375 C-12.44625536 24.84159167 -6.21258942 12.42517885 0 0 Z " fill="#FDFEFE" transform="translate(816,803)"/>
<path d="M0 0 C41.58 0 83.16 0 126 0 C124.66973425 3.32566437 123.33075018 6.49665214 121.78515625 9.7109375 C121.1363147 11.06384888 121.1363147 11.06384888 120.47436523 12.4440918 C119.77549194 13.89489136 119.77549194 13.89489136 119.0625 15.375 C118.05453253 17.47258179 117.04672407 19.57023999 116.0390625 21.66796875 C115.52762695 22.73192871 115.01619141 23.79588867 114.48925781 24.89208984 C113.13804066 27.71192499 111.79675817 30.53612803 110.4609375 33.36328125 C103.90846696 47.20422526 97.08548694 60.90283922 90.19311523 74.5769043 C86.63270378 81.65057857 83.08561713 88.70261541 80 96 C79.01 98.31 78.02 100.62 77 103 C35.09 103 -6.82 103 -50 103 C-49.10700774 99.42803097 -48.04849184 96.92261926 -46.375 93.6875 C-44.03053548 89.08230183 -41.7870701 84.44300376 -39.625 79.75 C-37.09999583 74.29296127 -34.49554105 68.88116242 -31.8125 63.5 C-31.49168457 62.85385742 -31.17086914 62.20771484 -30.84033203 61.54199219 C-29.2596126 58.39034611 -27.61854853 55.29599296 -25.85546875 52.2421875 C-23.94386195 48.90190614 -22.47093593 45.55476183 -21 42 C-14.91143476 27.57339961 -7.31650396 13.82006304 0 0 Z " fill="#FB0000" transform="translate(912,609)"/>
<path d="M0 0 C41.91 0 83.82 0 127 0 C126.67 1.65 126.34 3.3 126 5 C125.01 3.515 125.01 3.515 124 2 C121.7328258 1.53708984 121.7328258 1.53708984 119.05197144 1.60127258 C118.005867 1.58873444 116.95976257 1.57619629 115.88195801 1.5632782 C114.15350647 1.56543083 114.15350647 1.56543083 112.39013672 1.56762695 C111.18040192 1.5574353 109.97066711 1.54724365 108.72427368 1.53674316 C105.40205533 1.51167681 102.08027954 1.49987816 98.75800467 1.49388909 C95.28791067 1.48452587 91.81794557 1.45832428 88.34793091 1.43388367 C81.77481946 1.39015819 75.20173293 1.36164851 68.62852013 1.33856028 C61.1460755 1.31154089 53.66376015 1.26762749 46.18140769 1.22227156 C30.7876715 1.12933875 15.39391099 1.05769772 0 1 C0 0.67 0 0.34 0 0 Z " fill="#C3C6CF" transform="translate(816,803)"/>
<path d="M0 0 C0.99 0.33 1.98 0.66 3 1 C3.625 3.8125 3.625 3.8125 4 7 C3.01 8.485 3.01 8.485 2 10 C0.35 9.67 -1.3 9.34 -3 9 C-2.01 6.03 -1.02 3.06 0 0 Z " fill="#0E1326" transform="translate(852,990)"/>
<path d="M0 0 C2 3 2 3 1.75 5.125 C1 7 1 7 -1 8 C-1.474375 9.134375 -1.94875 10.26875 -2.4375 11.4375 C-4 15 -4 15 -7 17 C-5.24009216 11.08030998 -2.60305395 5.58365008 0 0 Z " fill="#272B3B" transform="translate(833,1029)"/>
<path d="M0 0 C0.33 0.66 0.66 1.32 1 2 C1.66 2 2.32 2 3 2 C2.8125 3.875 2.8125 3.875 2 6 C-0.5625 7.25 -0.5625 7.25 -3 8 C-1.125 2.25 -1.125 2.25 0 0 Z " fill="#262B3C" transform="translate(708,1286)"/>
<path d="M0 0 C1.65 0.33 3.3 0.66 5 1 C4.34 2.98 3.68 4.96 3 7 C1.68 5.35 0.36 3.7 -1 2 C-0.67 1.34 -0.34 0.68 0 0 Z " fill="#0E1325" transform="translate(1012,841)"/>
<path d="M0 0 C0.33 1.32 0.66 2.64 1 4 C0.34 4 -0.32 4 -1 4 C-1 4.66 -1 5.32 -1 6 C-0.34 6.33 0.32 6.66 1 7 C0.34 7 -0.32 7 -1 7 C-1.33 7.99 -1.66 8.98 -2 10 C-2.66 10 -3.32 10 -4 10 C-2.99806563 6.20696275 -2.18975773 3.28463659 0 0 Z " fill="#2B0817" transform="translate(1029,627)"/>
<path d="M0 0 C0.33 0 0.66 0 1 0 C1.3125 2.8125 1.3125 2.8125 1 6 C-1.5 7.875 -1.5 7.875 -4 9 C-2.80100302 5.9168649 -1.52299523 2.93720508 0 0 Z " fill="#200817" transform="translate(1038,609)"/>
<path d="M0 0 C0.66 0.33 1.32 0.66 2 1 C1.34 2.98 0.68 4.96 0 7 C-0.99 6.01 -1.98 5.02 -3 4 C-2.34 3.67 -1.68 3.34 -1 3 C-0.67 2.01 -0.34 1.02 0 0 Z " fill="#0A0E22" transform="translate(701,1031)"/>
<path d="M0 0 C0.99 0.33 1.98 0.66 3 1 C-0.75 6.875 -0.75 6.875 -3 8 C-1.125 2.25 -1.125 2.25 0 0 Z " fill="#2E3341" transform="translate(838,1019)"/>
<path d="M0 0 C0.33 0.66 0.66 1.32 1 2 C1.66 2.33 2.32 2.66 3 3 C2.01 4.98 1.02 6.96 0 9 C-0.33 9 -0.66 9 -1 9 C-1.125 2.25 -1.125 2.25 0 0 Z " fill="#110A17" transform="translate(884,658)"/>
</svg>
